HIERARCHY
ROOT Hips
{
  OFFSET 267.745 86.9975 -272.335
  CHANNELS 6 Xposition Yposition Zposition Zrotation Xrotation Yrotation
  JOINT LeftUpLeg
  {
    OFFSET 8.64259 1.95398 -2.38835
    CHANNELS 3 Zrotation Xrotation Yrotation
    JOINT LeftLeg
    {
      OFFSET 43.7702 0 0
      CHANNELS 3 Zrotation Xrotation Yrotation
      JOINT LeftFoot
      {
        OFFSET 40.6238 0 0
        CHANNELS 3 Zrotation Xrotation Yrotation
        JOINT LeftToeBase
        {
          OFFSET 12.7242 0 0
          CHANNELS 3 Zrotation Xrotation Yrotation
          End Site
          {
            OFFSET 0 0 0
          }
        }
      }
    }
  }
  JOINT RightUpLeg
  {
    OFFSET -8.2249 1.95398 -2.59336
    CHANNELS 3 Zrotation Xrotation Yrotation
    JOINT RightLeg
    {
      OFFSET 43.5653 0 0
      CHANNELS 3 Zrotation Xrotation Yrotation
      JOINT RightFoot
      {
        OFFSET 40.6238 0 0
        CHANNELS 3 Zrotation Xrotation Yrotation
        JOINT RightToeBase
        {
          OFFSET 12.7242 0 0
          CHANNELS 3 Zrotation Xrotation Yrotation
          End Site
          {
            OFFSET 0 0 0
          }
        }
      }
    }
  }
  JOINT Spine
  {
    OFFSET 0.165834 0.87714 6.61349
    CHANNELS 3 Zrotation Xrotation Yrotation
    JOINT Spine1
    {
      OFFSET 7.38963 1.71661e-005 0
      CHANNELS 3 Zrotation Xrotation Yrotation
      JOINT Spine2
      {
        OFFSET 11.9445 1.14441e-005 0
        CHANNELS 3 Zrotation Xrotation Yrotation
        JOINT Spine3
        {
          OFFSET 14.7254 4.19617e-005 0
          CHANNELS 3 Zrotation Xrotation Yrotation
          JOINT Spine4
          {
            OFFSET 10.9679 0 0
            CHANNELS 3 Zrotation Xrotation Yrotation
            JOINT RightShoulder
            {
              OFFSET 2.46616 -1.6653 3.69651
              CHANNELS 3 Zrotation Xrotation Yrotation
              JOINT RightArm
              {
                OFFSET 13.0012 0 0
                CHANNELS 3 Zrotation Xrotation Yrotation
                JOINT RightForeArm
                {
                  OFFSET 28.7848 1.52588e-005 0
                  CHANNELS 3 Zrotation Xrotation Yrotation
                  JOINT RightHand
                  {
                    OFFSET 26.5688 1.52588e-005 0
                    CHANNELS 3 Zrotation Xrotation Yrotation
                    End Site
                    {
                      OFFSET 0 0 0
                    }
                  }
                }
              }
            }
            JOINT LeftShoulder
            {
              OFFSET 2.38034 -1.29275 -3.7523
              CHANNELS 3 Zrotation Xrotation Yrotation
              JOINT LeftArm
              {
                OFFSET 16.3182 6.10352e-005 0
                CHANNELS 3 Zrotation Xrotation Yrotation
                JOINT LeftForeArm
                {
                  OFFSET 27.0901 0 0
                  CHANNELS 3 Zrotation Xrotation Yrotation
                  JOINT LeftHand
                  {
                    OFFSET 24.5451 1.52588e-005 0
                    CHANNELS 3 Zrotation Xrotation Yrotation
                    End Site
                    {
                      OFFSET 0 0 0
                    }
                  }
                }
              }
            }
            JOINT Neck
            {
              OFFSET 5.0226 -0.0266342 0
              CHANNELS 3 Zrotation Xrotation Yrotation
              JOINT Head
              {
                OFFSET 6.69364 2.86102e-005 0
                CHANNELS 3 Zrotation Xrotation Yrotation
                End Site
                {
                  OFFSET 0 0 0
                }
              }
            }
          }
        }
      }
    }
  }
}
MOTION
Frames:	6
Frame Time:	0.0416667
-119.797 88.3491 -90.8767 86.6045 -40.6295 89.6252 175.489 51.2859 86.4923 -91.3604 8.00172 3.15638 52.3989 -0.0085719 17.9908 57.1187 -3.12538 0.323315 173.6 -2.46088 94.5354 -38.8678 -13.4147 4.39207 66.2013 2.50789 12.2037 55.9009 -5.63964 6.77334 1.70337 8.2874 -90.6496 10.3212 3.09642 -1.55828 -1.34717 3.02486 -1.69314 -23.9105 3.42147 -0.554729 -3.89782 3.4215 -0.554725 99.3201 -43.0556 -87.0185 27.2647 -46.9435 4.23148 1.64196 16.4836 -109.393 -10.5552 -0.520823 0.580718 -81.0309 -43.6964 91.6303 14.8822 59.5214 -8.34203 -30.4856 -13.3155 -112.158 12.9666 -0.97898 -10.9603 12.1167 -5.30395 -1.33714 -11.4121 -4.50335 -5.458 
-99.7374 91.2476 -71.4788 85.0467 -41.4837 88.3118 175.986 49.9677 86.2338 -50.0245 11.0871 2.16025 51.05 -3.49491 9.40561 58.517 -3.10063 1.55803 177.207 -22.1197 93.3436 -18.9302 -12.671 -0.717401 30.7737 17.6814 29.5882 12.1585 4.1609 -0.294071 2.06536 7.97442 -90.3811 10.9527 3.93549 -1.13354 -0.71289 3.88179 -1.30588 -23.2964 4.09396 0.103617 -3.28376 4.09397 0.103612 100.604 -43.4958 -84.8122 31.5544 -48.2738 10.8428 5.27418 15.4496 -113.396 -12.1054 -0.47875 -0.735338 -82.5163 -42.9366 89.1205 9.43157 62.8395 -0.262257 -27.8042 -14.4325 -114.071 12.5351 -0.994488 -11.2721 10.053 -6.78988 0.461088 -12.9754 -6.07232 -8.92137 
-81.3201 91.0328 -53.2508 90.467 -40.9635 93.6767 -179.397 40.4732 84.9535 -34.7201 15.5568 -0.325395 44.057 -9.74122 3.54095 62.2996 -3.38177 2.56656 176.208 -12.6825 94.9186 -65.9631 -23.0753 -1.22147 35.6809 16.4073 10.4345 19.2251 1.34366 5.8262 1.55818 8.53307 -90.5925 9.82369 2.83749 -1.39428 -1.84504 2.77339 -1.51788 -24.404 3.12521 -0.476354 -4.39138 3.12522 -0.476345 101.059 -44.6354 -84.0115 32.6529 -43.1324 14.5879 0.260094 16.7908 -111.971 -7.8892 -0.204535 -2.22834 -82.0911 -44.8732 89.9957 7.42935 58.6055 -3.22934 -23.9762 -14.9152 -111.349 11.6935 -0.895022 -10.8862 14.2738 -5.29983 -1.05454 -15.0917 -4.38299 -5.03894 
-62.9934 88.5197 -34.9776 98.9303 -38.4444 92.6395 -174.696 23.6807 75.1769 -46.4942 18.4741 -3.34817 59.6227 6.94146 25.3371 46.4653 -2.01841 -5.28283 173.279 7.40167 87.1352 -106.68 -16.3656 -3.23849 40.1471 12.6578 6.0452 21.1965 2.02318 -1.44739 0.417852 9.40388 -89.7272 8.06797 0.953177 0.488084 -3.60253 0.973742 0.445654 -26.1397 0.762375 0.751954 -6.12701 0.762391 0.751967 102.076 -46.7413 -82.3166 37.2059 -36.1785 22.728 -4.95272 17.5819 -111.85 -8.94579 -0.140348 -3.51641 -82.6901 -46.579 89.195 15.203 51.9823 -18.8216 -23.4153 -14.6207 -105.766 10.6208 -0.730422 -9.97403 17.6471 -3.93376 -6.1497 -15.2528 -2.02336 0.201404 
-43.0376 87.049 -16.7421 92.0486 -34.0081 88.1078 -178.717 9.84399 75.8 -49.0397 24.522 -0.266874 65.7587 16.1566 35.2752 57.2976 -3.01668 1.2739 177.793 40.1086 82.1308 -110.679 -13.5098 -3.56592 40.5532 12.7945 14.7668 35.5184 -1.68812 0.708215 -0.97142 8.38212 -89.5923 10.1171 -1.74984 0.956214 -1.55309 -1.70608 1.0323 -24.097 -1.95632 0.385943 -4.08438 -1.95632 0.385939 103.054 -43.0139 -80.6438 48.2702 -32.0686 36.8861 -4.99329 18.5435 -117.157 -10.5533 -0.243499 -2.60506 -82.2215 -45.8943 89.8746 30.9506 53.0078 -37.0837 -29.899 -14.7209 -104.544 7.53318 -0.626023 -10.5435 15.5433 -1.54331 -9.45896 -17.9253 0.639599 3.83918 
-21.2694 90.9619 3.23913 92.3485 -31.202 94.1658 -175.033 -12.7428 87.1497 -38.3942 26.2756 4.81804 54.8714 -2.85991 7.56155 60.5365 -3.79778 -1.44224 171.957 46.495 88.5903 -77.4406 -18.877 -0.647869 46.3741 10.5292 6.26589 51.3808 -5.32187 2.56347 -1.65709 7.99366 -90.54 10.8738 -3.54858 -0.737875 -0.792631 -3.57759 -0.580802 -23.3571 -3.16268 -1.77113 -3.34448 -3.16268 -1.77113 101.68 -38.6414 -83.0462 55.3903 -25.1328 52.0721 -3.25488 18.9455 -122.576 -7.85118 -0.140441 -3.4525 -82.8485 -42.9592 88.5833 40.1085 59.5697 -47.6558 -31.3956 -15.2986 -108.542 7.24573 -0.561614 -9.9703 13.1924 0.763562 -13.636 -20.8984 2.45907 11.8656 
